<?xml version="1.0" standalone="no"?><!DOCTYPE svg PUBLIC "-//W3C//DTD SVG 1.1//EN" "http://www.w3.org/Graphics/SVG/1.1/DTD/svg11.dtd"><svg t="1561620961957" class="icon" viewBox="0 0 1052 1024" version="1.1" xmlns="http://www.w3.org/2000/svg" p-id="2323" xmlns:xlink="http://www.w3.org/1999/xlink" width="205.46875" height="200"><defs><style type="text/css"></style></defs><path d="M1009.720889 209.208889L549.376 4.408889a51.114667 51.114667 0 0 0-41.557333 0l-460.344889 204.8a51.2 51.2 0 0 0 0 93.582222l460.344889 204.8c13.226667 5.888 28.302222 5.888 41.528889 0l460.373333-204.8a51.2 51.2 0 0 0 0-93.582222zM528.583111 768c-7.168 0-14.222222-1.507556-20.764444-4.408889l-460.344889-204.8a51.228444 51.228444 0 0 1 41.528889-93.582222l439.580444 195.555555 439.580445-195.555555a51.228444 51.228444 0 0 1 41.557333 93.582222l-460.344889 204.8c-6.542222 2.929778-13.653333 4.408889-20.792889 4.408889z m0 256c-7.168 0-14.222222-1.507556-20.764444-4.408889l-460.344889-204.8a51.228444 51.228444 0 0 1 41.528889-93.582222l439.580444 195.555555 439.580445-195.555555a51.228444 51.228444 0 0 1 41.557333 93.582222l-460.344889 204.8c-6.542222 2.901333-13.653333 4.408889-20.792889 4.408889z" p-id="2324"></path></svg>