<?xml version="1.0" standalone="no"?><!DOCTYPE svg PUBLIC "-//W3C//DTD SVG 1.1//EN" "http://www.w3.org/Graphics/SVG/1.1/DTD/svg11.dtd"><svg t="1561621647710" class="icon" viewBox="0 0 1024 1024" version="1.1" xmlns="http://www.w3.org/2000/svg" p-id="9693" xmlns:xlink="http://www.w3.org/1999/xlink" width="200" height="200"><defs><style type="text/css"></style></defs><path d="M870.4 57.6C780.8 19.2 652.8 0 512 0 371.2 0 243.2 19.2 153.6 57.6 51.2 102.4 0 153.6 0 211.2V806.4c0 57.6 51.2 115.2 153.6 153.6C243.2 1004.8 371.2 1024 512 1024c140.8 0 268.8-19.2 358.4-57.6 96-38.4 153.6-96 153.6-153.6V211.2c0-57.6-51.2-108.8-153.6-153.6zM812.8 320C729.6 352 614.4 364.8 512 364.8c-108.8 0-217.6-12.8-300.8-44.8-96-25.6-140.8-64-140.8-108.8 0-38.4 51.2-76.8 140.8-108.8 83.2-25.6 192-38.4 300.8-38.4 102.4 0 217.6 19.2 300.8 44.8 89.6 32 140.8 70.4 140.8 108.8 0 38.4-44.8 76.8-140.8 102.4z m6.4 185.6c-83.2 25.6-198.4 44.8-307.2 44.8s-217.6-19.2-307.2-44.8C115.2 473.6 64 435.2 64 396.8V326.4C128 352 172.8 384 243.2 396.8c83.2 19.2 172.8 32 268.8 32s185.6-12.8 268.8-32c70.4-12.8 115.2-44.8 179.2-70.4v76.8c0 32-51.2 70.4-140.8 102.4z m0 204.8c-83.2 25.6-198.4 44.8-307.2 44.8s-217.6-19.2-307.2-44.8c-89.6-25.6-140.8-64-140.8-108.8v-96c64 32 108.8 57.6 179.2 76.8 83.2 19.2 172.8 32 268.8 32s185.6-12.8 268.8-32c70.4-19.2 115.2-44.8 179.2-76.8v96c0 44.8-51.2 83.2-140.8 108.8zM512 960c-108.8 0-217.6-19.2-307.2-44.8-89.6-25.6-140.8-64-140.8-102.4V716.8c64 32 108.8 57.6 179.2 76.8 76.8 19.2 172.8 32 262.4 32 96 0 185.6-12.8 268.8-32 76.8-19.2 121.6-44.8 185.6-76.8v96c0 38.4-51.2 76.8-140.8 108.8-83.2 25.6-204.8 38.4-307.2 38.4z" p-id="9694"></path></svg>