<?xml version="1.0" standalone="no"?><!DOCTYPE svg PUBLIC "-//W3C//DTD SVG 1.1//EN" "http://www.w3.org/Graphics/SVG/1.1/DTD/svg11.dtd"><svg t="1561621734702" class="icon" viewBox="0 0 1024 1024" version="1.1" xmlns="http://www.w3.org/2000/svg" p-id="1127" xmlns:xlink="http://www.w3.org/1999/xlink" width="200" height="200"><defs><style type="text/css"></style></defs><path d="M514.759432 960.282215c-16.55659 0.501715-33.614895 1.00343-51.174915 1.003429-209.215091 0-378.794708-53.181774-378.794708-119.408133 0-30.102891 35.621754-57.697207 94.322391-78.769231-0.501715 0-1.00343-0.501715-1.505145-0.501715-30.102891-9.532582-54.686918-20.068594-74.253797-31.10632-63.216071 35.621754-78.769231 77.765801-78.769231 110.377266 0 42.645762 26.590887 101.848114 153.023028 141.985301 77.264086 24.082313 178.610485 37.628613 285.977462 37.628614 53.181774 0 105.360118-3.512004 153.524743-9.532582-37.628613-10.034297-72.246938-28.096031-102.349828-51.676629z" p-id="1128"></path><path d="M684.339049 400.870162c155.029887 0 280.458599 125.930426 280.458599 280.458598s-125.930426 280.458599-280.458599 280.458599-280.458599-125.930426-280.458598-280.458599 125.428711-280.458599 280.458598-280.458598m0-59.202352c-187.641352 0-339.660951 152.019598-339.66095 339.66095s152.019598 339.660951 339.66095 339.660951 339.660951-152.019598 339.660951-339.660951-152.019598-339.660951-339.660951-339.66095z" p-id="1129"></path><path d="M814.784909 594.532092c-33.11318-1.505145-65.22293 11.539441-88.301812 35.621754l-115.394415 125.930426-1.505145 1.505145c-15.051445 16.054875-36.123469 24.082313-58.198922 22.075453-33.614895-3.010289-61.209211-31.10632-63.717785-65.22293-1.505145-19.566879 5.518863-38.632043 18.563449-53.181773 13.546301-14.048016 32.10975-22.577168 51.676629-22.577168 19.566879 0 37.628613 8.027438 51.174915 22.075453 7.024008 7.525723 18.061734 9.532582 26.590886 5.518863 6.522293-3.010289 11.037727-9.030867 12.041157-16.054875 1.505145-7.024008-1.00343-14.048016-5.518864-19.566879-13.044586-14.048016-29.601176-24.584027-47.66291-31.10632 8.529152-42.144047 45.656051-73.250367 89.305243-73.250368 29.601176 0 57.697207 14.549731 74.755512 39.133758 6.020578 8.529152 16.55659 12.041156 26.089172 9.030867 6.522293-2.508574 12.041156-7.525723 14.048015-14.048015 2.006859-6.522293 1.00343-14.048016-3.010289-20.068594-25.587457-37.126899-67.229789-59.202352-111.88241-59.202352-66.22636 0-122.418422 47.66291-133.456149 112.384125-58.198922 4.013719-104.858403 51.676629-107.366977 110.377266-1.00343 31.608035 10.034297 61.710926 32.10975 84.288095s51.174914 35.120039 82.782949 35.120039c29.601176 0 57.195492-11.037727 78.267516-30.604606l0.501715 0.501715 121.916708-133.456149c15.051445-15.55316 36.123469-23.580598 57.697207-21.573738 33.614895 3.512004 60.707496 31.10632 63.21607 65.22293 1.505145 19.566879-5.518863 38.632043-18.563449 53.181773-13.546301 14.048016-32.10975 22.577168-51.676629 22.577168h-112.88584c-12.542871 0-22.577168 10.034297-22.577168 22.577168s10.034297 22.577168 22.577168 22.577168h112.88584c30.604606 0 59.704067-12.041156 81.77952-33.614894 21.573738-21.573738 33.614895-50.673199 33.614895-81.77952 0.501715-60.707496-49.168055-112.384125-109.875552-114.390985z" p-id="1130"></path><path d="M358.2244 735.012249c-158.040176-14.549731-273.434591-60.205781-273.434591-114.390985 0-29.601176 34.618324-56.693778 91.312102-77.765801 0.501715 0 1.00343 0.501715 2.006859 0.501715 55.690348 17.56002 123.923567 29.601176 198.177364 34.618324 7.525723-20.570309 17.058305-40.137188 28.096032-58.700637-180.617344-9.030867-318.588927-58.198922-318.588927-117.902988 0-30.102891 35.120039-57.195492 92.817246-78.267516 77.264086 24.082313 178.610485 37.628613 285.977462 37.628613s208.713376-13.546301 285.977462-37.628613c47.66291 17.56002 80.274375 39.133758 89.806957 63.21607 21.573738 10.034297 42.144047 22.577168 60.707497 36.625184 1.505145-7.525723 2.508574-14.549731 2.508574-21.573738 0-32.10975-15.55316-74.253797-77.765801-109.875552 62.714356-35.621754 77.765801-77.765801 77.765801-109.875551 0-42.645762-26.590887-101.848114-153.023028-141.985301C673.301323 15.55316 571.954924 2.006859 464.587947 2.006859S255.874571 15.55316 178.610485 39.635473C51.174914 80.274375 24.584027 139.476727 24.584027 182.122489c0 32.611465 15.55316 74.253797 77.765802 109.875551C39.635473 327.619794 24.584027 369.763841 24.584027 401.873591c0 32.10975 15.051445 73.752082 76.762372 109.373837C40.137188 546.869182 24.584027 588.511514 24.584027 620.621264c0 42.645762 26.590887 101.848114 153.023028 141.985301 54.686918 17.058305 121.414993 28.597746 193.661931 34.11661-6.020578-20.068594-10.536012-40.638902-13.044586-61.710926zM84.789809 182.122489c0-65.724645 169.579618-119.408133 378.794708-119.408133s378.794708 53.181774 378.794709 119.408133c0 65.724645-169.579618 119.408133-378.794709 119.408133S84.789809 247.847134 84.789809 182.122489z" p-id="1131"></path></svg>