<?xml version="1.0" standalone="no"?><!DOCTYPE svg PUBLIC "-//W3C//DTD SVG 1.1//EN" "http://www.w3.org/Graphics/SVG/1.1/DTD/svg11.dtd"><svg t="1561621377026" class="icon" viewBox="0 0 1152 1024" version="1.1" xmlns="http://www.w3.org/2000/svg" p-id="4976" xmlns:xlink="http://www.w3.org/1999/xlink" width="225" height="200"><defs><style type="text/css"></style></defs><path d="M319.274667 1.472H30.912C18.752 1.472 8.874667 11.306667 8.874667 23.466667v977.002666c0 12.16 9.877333 22.037333 22.037333 22.037334h288.362667c12.16 0 22.016-9.856 22.016-22.037334V23.488c0-12.16-9.856-22.016-22.016-22.016z m-22.037334 977.002667H52.928V45.525333h244.309333v932.949334zM119.893333 531.328h110.378667a18.005333 18.005333 0 0 0 18.026667-18.026667V132.074667a18.005333 18.005333 0 0 0-18.026667-18.026667H119.893333a18.005333 18.005333 0 0 0-18.005333 18.026667v381.226666c0 9.962667 8.064 18.026667 18.005333 18.026667z m18.005334-381.248H212.266667v345.216H137.898667V150.08z m37.184 602.176c45.376 0 82.282667-38.506667 82.282666-85.824 0-47.338667-36.906667-85.845333-82.282666-85.845333-45.354667 0-82.282667 38.506667-82.282667 85.845333 0 47.317333 36.906667 85.824 82.282667 85.824z m0-127.616c21.077333 0 38.229333 18.752 38.229333 41.792s-17.152 41.770667-38.229333 41.770667-38.229333-18.730667-38.229334-41.770667 17.152-41.792 38.229334-41.792zM720.213333 1.493333H431.786667c-12.16 0-22.016 9.856-22.016 22.016v977.002667c0 12.16 9.856 22.037333 22.016 22.037333H720.213333c12.16 0 22.016-9.856 22.016-22.037333V23.488c0-12.16-9.856-22.016-22.016-22.016z m-22.037333 977.002667H453.845333V45.525333h244.309334v932.949334z m-177.344-447.146667h110.378667a18.026667 18.026667 0 0 0 18.026666-18.005333V132.053333a18.026667 18.026667 0 0 0-18.026666-18.005333h-110.378667a18.026667 18.026667 0 0 0-18.026667 18.005333v381.290667c0 9.962667 8.064 18.026667 18.026667 18.026667z m18.005333-381.269333h74.368v345.258667h-74.368V150.058667zM576 752.256c45.376 0 82.282667-38.506667 82.282667-85.824 0-47.338667-36.906667-85.845333-82.282667-85.845333-45.376 0-82.282667 38.506667-82.282667 85.845333 0 47.317333 36.906667 85.824 82.282667 85.824z m0-127.616c21.077333 0 38.229333 18.752 38.229333 41.792s-17.152 41.770667-38.229333 41.770667-38.229333-18.730667-38.229333-41.770667 17.152-41.792 38.229333-41.792zM1121.088 1.493333H832.725333c-12.16 0-22.016 9.856-22.016 22.016v977.002667c0 12.16 9.856 22.037333 22.016 22.037333h288.362667c12.16 0 22.037333-9.856 22.037333-22.037333V23.488c0-12.16-9.877333-22.016-22.037333-22.016zM1099.093333 978.474667H854.762667V45.525333h244.309333v932.949334z m-177.344-447.146667h110.378667a18.026667 18.026667 0 0 0 18.005333-18.005333V132.053333a18.026667 18.026667 0 0 0-18.005333-18.005333h-110.378667a18.026667 18.026667 0 0 0-18.026666 18.005333v381.290667c0 9.962667 8.064 18.026667 18.026666 18.026667z m18.005334-381.269333h74.346666v345.258666H939.733333V150.058667z m37.184 602.197333c45.354667 0 82.282667-38.506667 82.282666-85.824 0-47.338667-36.906667-85.845333-82.282666-85.845333-45.376 0-82.282667 38.506667-82.282667 85.845333 0 47.317333 36.906667 85.824 82.282667 85.824z m0-127.616c21.077333 0 38.229333 18.752 38.229333 41.792s-17.152 41.770667-38.229333 41.770667S938.666667 689.493333 938.666667 666.453333s17.152-41.792 38.229333-41.792z" fill="#979797" p-id="4977"></path></svg>