<?xml version="1.0" standalone="no"?><!DOCTYPE svg PUBLIC "-//W3C//DTD SVG 1.1//EN" "http://www.w3.org/Graphics/SVG/1.1/DTD/svg11.dtd"><svg t="1561621010713" class="icon" viewBox="0 0 1024 1024" version="1.1" xmlns="http://www.w3.org/2000/svg" p-id="2558" xmlns:xlink="http://www.w3.org/1999/xlink" width="200" height="200"><defs><style type="text/css"></style></defs><path d="M410.56 800.256c17.088 0 30.912 14.848 30.912 33.28 0 18.304-13.824 33.152-30.976 33.152H227.584c-68.096 0-123.52-59.584-123.52-132.864v-341.76c0-73.28 55.424-132.928 123.52-132.928h332.8c68.096 0 123.52 59.648 123.52 132.928V513.92c0 18.368-13.76 33.216-30.848 33.216-17.152 0-30.912-14.848-30.912-33.216V392.064c0-36.608-27.712-66.432-61.76-66.432h-332.8c-34.112 0-61.824 29.76-61.824 66.432v341.76c0 36.608 27.712 66.432 61.76 66.432h183.04z m378.624-284.352V211.584c0-34.112-29.824-61.888-66.496-61.888H381.056c-10.88 0-20.992 2.432-30.08 6.72-8.32 3.968-15.808 9.6-21.888 16.64-4.224 4.8-19.968 31.424-46.4 22.592-26.368-8.768-19.712-40.832-15.744-47.36a122.88 122.88 0 0 1 20.928-24.896c8.704-7.68 21.952-17.088 34.944-22.976 18.304-8.256 38.144-12.48 58.24-12.48h341.568c73.344 0 132.992 55.488 132.992 123.52V515.84c0 17.152-14.912 30.976-33.28 30.976-18.304 0-33.216-13.824-33.216-30.976l0.064 0.064z m-235.52 362.368h-2.56a34.496 34.496 0 0 1-24.704-12.672 161.472 161.472 0 0 1-35.712-98.752c0.512-91.072 80.832-164.8 180.16-165.312h166.784c8.832 0 16.768 4.928 20.224 12.288a19.456 19.456 0 0 1-3.904 21.632l-75.136 71.232a23.232 23.232 0 0 1-24.064 4.672 20.544 20.544 0 0 1-14.4-19.2v-26.048a3.84 3.84 0 0 0-1.28-3.008 4.416 4.416 0 0 0-3.264-1.088H671.36c-61.952 2.816-111.488 48.256-114.56 105.024 0 22.272 7.488 43.904 21.44 62.08 7.552 8.768 9.024 21.12 3.84 31.36a33.472 33.472 0 0 1-28.416 17.792z m310.848 54.08H590.336a22.272 22.272 0 0 1-20.288-12.16 19.008 19.008 0 0 1 4.224-21.952l72.512-68.096a23.232 23.232 0 0 1 24.064-4.736 20.736 20.736 0 0 1 14.336 19.2v26.24c0 0.96 0.32 1.792 1.088 2.432 0.64 0.64 1.664 0.96 2.624 1.024h65.152c62.912-0.96 113.6-47.488 114.624-105.088a93.76 93.76 0 0 0-24-61.888 27.968 27.968 0 0 1 1.6-40.128 34.496 34.496 0 0 1 25.856-9.92 32.96 32.96 0 0 1 24.384 12.608c22.912 29.056 35.392 64 35.52 99.84-0.32 89.984-79.936 162.688-177.92 162.624h110.4z" p-id="2559"></path></svg>