<?xml version="1.0" standalone="no"?><!DOCTYPE svg PUBLIC "-//W3C//DTD SVG 1.1//EN" "http://www.w3.org/Graphics/SVG/1.1/DTD/svg11.dtd"><svg t="1561623548080" class="icon" viewBox="0 0 1024 1024" version="1.1" xmlns="http://www.w3.org/2000/svg" p-id="1099" xmlns:xlink="http://www.w3.org/1999/xlink" width="200" height="200"><defs><style type="text/css"></style></defs><path d="M500.16 487.36l163.008-163.008a59.52 59.52 0 0 1 14.08-61.76l78.72-78.72a59.52 59.52 0 0 1 84.224 84.16l-78.72 78.72a59.52 59.52 0 0 1-54.656 16.128L540.928 528.64a48 48 0 0 1-4.48 62.784l-257.92 257.92a48 48 0 0 1-67.904 0l-40.704-40.704a48 48 0 0 1 0-67.84l257.92-257.984a48 48 0 0 1 67.84 0l4.48 4.48zM368 491.136l-11.072-11.008a48 48 0 0 1-12.416-46.336c-48.256 11.712-104.768-3.968-146.304-45.504-49.216-49.216-62.08-119.424-36.224-172.032l104.128 104.128a19.2 19.2 0 0 0 27.136 0l27.136-27.136a19.2 19.2 0 0 0 0-27.136L216.32 161.92c52.608-25.92 122.88-12.992 172.032 36.224 45.312 45.312 59.84 108.48 41.6 159.232 12.864-0.448 25.856 4.224 35.648 14.08l11.072 11.008L368 491.136z m163.456 163.456l108.608-108.608 212.928 212.928a48 48 0 0 1 0 67.84l-40.768 40.768a48 48 0 0 1-67.84 0l-212.928-212.928z" p-id="1100"></path></svg>