<?xml version="1.0" standalone="no"?><!DOCTYPE svg PUBLIC "-//W3C//DTD SVG 1.1//EN" "http://www.w3.org/Graphics/SVG/1.1/DTD/svg11.dtd"><svg t="1561621144863" class="icon" viewBox="0 0 1024 1024" version="1.1" xmlns="http://www.w3.org/2000/svg" p-id="1375" xmlns:xlink="http://www.w3.org/1999/xlink" width="200" height="200"><defs><style type="text/css"></style></defs><path d="M864 960 160 960c-52.944 0-96-43.056-96-96L64 160c0-52.944 43.056-96 96-96l704 0c52.944 0 96 43.056 96 96l0 704C960 916.944 916.944 960 864 960zM160 128c-17.648 0-32 14.352-32 32l0 704c0 17.648 14.352 32 32 32l704 0c17.648 0 32-14.352 32-32L896 160c0-17.648-14.352-32-32-32L160 128z" p-id="1376"></path><path d="M768 352 256 352c-17.664 0-32-14.336-32-32s14.336-32 32-32l512 0c17.664 0 32 14.336 32 32S785.664 352 768 352z" p-id="1377"></path><path d="M768 544 256 544c-17.664 0-32-14.336-32-32s14.336-32 32-32l512 0c17.664 0 32 14.336 32 32S785.664 544 768 544z" p-id="1378"></path><path d="M512 736 256 736c-17.664 0-32-14.336-32-32s14.336-32 32-32l256 0c17.664 0 32 14.336 32 32S529.664 736 512 736z" p-id="1379"></path></svg>