<?xml version="1.0" standalone="no"?><!DOCTYPE svg PUBLIC "-//W3C//DTD SVG 1.1//EN" "http://www.w3.org/Graphics/SVG/1.1/DTD/svg11.dtd"><svg t="1561623697669" class="icon" viewBox="0 0 1024 1024" version="1.1" xmlns="http://www.w3.org/2000/svg" p-id="1811" xmlns:xlink="http://www.w3.org/1999/xlink" width="200" height="200"><defs><style type="text/css"></style></defs><path d="M449.8 683c-6.6 0-13.1-2.6-17.9-7.4-6-6-8.6-14.5-6.9-22.8l26.3-131.5c1-4.9 3.4-9.4 6.9-12.9l289.3-289.3c24.4-24.4 64-24.4 88.4 0l52.6 52.6c24.4 24.4 24.4 64 0 88.4L599.2 649.3c-3.5 3.5-8 5.9-12.9 6.9l-131.5 26.3c-1.7 0.3-3.4 0.5-5 0.5z m131.5-51.6h0.5-0.5z m-81.9-92.7L482 625.5l86.8-17.4 283.9-283.9c4.6-4.6 4.6-12.2 0-16.8l-52.6-52.6c-4.6-4.6-12.2-4.6-16.8 0L499.4 538.7z" p-id="1812"></path><path d="M818 420c-6.5 0-12.9-2.5-17.9-7.4L694.9 307.4c-9.9-9.9-9.9-25.9 0-35.8s25.9-9.9 35.8 0l105.2 105.2c9.9 9.9 9.9 25.9 0 35.8-5 4.9-11.4 7.4-17.9 7.4zM581.3 656.7c-6.5 0-12.9-2.5-17.9-7.4L458.2 544.1c-9.9-9.9-9.9-25.9 0-35.8 9.9-9.9 25.9-9.9 35.8 0l105.2 105.2c9.9 9.9 9.9 25.9 0 35.8-5 4.9-11.5 7.4-17.9 7.4z" p-id="1813"></path><path d="M512 825.3c-233.5 0-417.3-242.7-425-253-6.7-9-6.7-21.3 0-30.2 7.7-10.3 191.5-253 425-253 15.4 0 30.6 1.1 45.5 3.1 13.8 1.9 23.6 14.6 21.7 28.4-1.9 13.8-14.6 23.5-28.4 21.7-12.7-1.7-25.7-2.6-38.8-2.6-176.8 0-329.1 165.8-372.2 217.5C183 608.8 335.5 774.7 512 774.7c176.9 0 329.2-166 372.3-217.6-8.8-10.6-22.3-26-39.5-43.7-9.7-10-9.5-26 0.5-35.8 10-9.7 26-9.5 35.8 0.5 34.9 36 55 62.7 55.8 63.9 6.7 9 6.7 21.3 0 30.2-7.6 10.5-191.3 253.1-424.9 253.1z" p-id="1814"></path></svg>