<?xml version="1.0" standalone="no"?><!DOCTYPE svg PUBLIC "-//W3C//DTD SVG 1.1//EN" "http://www.w3.org/Graphics/SVG/1.1/DTD/svg11.dtd"><svg t="1561620905598" class="icon" viewBox="0 0 1024 1024" version="1.1" xmlns="http://www.w3.org/2000/svg" p-id="1573" xmlns:xlink="http://www.w3.org/1999/xlink" width="200" height="200"><defs><style type="text/css"></style></defs><path d="M256 678.656v-58.112l192 122.432-78.272 49.92h-0.128L256 865.472v-62.912C112 787.2 0 670.464 0 528.64c0-152.128 128.96-275.456 288-275.456S576 376.576 576 528.64c0 84.48 71.68 153.024 160 153.024S896 613.248 896 528.704c0-74.048-54.976-135.808-128-150.016v58.24L576 314.368 768 192v62.912c144 15.232 256 131.968 256 273.792 0 152.128-128.96 275.456-288 275.456S448 680.832 448 528.704C448 444.16 376.32 375.68 288 375.68S128 444.16 128 528.64c0 74.112 54.976 135.872 128 150.016z" p-id="1574"></path></svg>