<?xml version="1.0" standalone="no"?><!DOCTYPE svg PUBLIC "-//W3C//DTD SVG 1.1//EN" "http://www.w3.org/Graphics/SVG/1.1/DTD/svg11.dtd"><svg t="1561621573220" class="icon" viewBox="0 0 1024 1024" version="1.1" xmlns="http://www.w3.org/2000/svg" p-id="7682" xmlns:xlink="http://www.w3.org/1999/xlink" width="200" height="200"><defs><style type="text/css"></style></defs><path d="M865.4952507 370.60189971a117.45468863 117.45468863 0 0 0-116.93622894 109.06506802l-101.66523409 12.34876743a164.35172523 164.35172523 0 0 0-76.40210686-98.8372721l42.08950118-118.63300612c5.65592402 0.8955213 11.31184801 1.7910426 17.25056825 1.79104258A117.83175024 117.83175024 0 1 0 512 158.5047493c0 41.57104148 21.63390934 77.91035326 54.10833971 98.93153749l-41.6181742 117.40755594A161.99509022 161.99509022 0 0 0 488.43364995 370.60189971c-55.66371882 0-104.63459421 27.76116034-134.51672607 69.94492695l-85.49871797-51.98736821c4.90180081-12.96149253 7.91829362-26.81850636 7.91829361-41.52390878a117.83175024 117.83175024 0 1 0-34.02980945 82.71788867l90.02345716 54.72106481A163.73900013 163.73900013 0 0 0 323.46919964 535.56635005c0 42.37229738 16.44931232 80.64404987 42.70222628 109.86632391l-90.49478419 78.61734377A116.79483083 116.79483083 0 0 0 205.63744939 700.53080036a117.83175024 117.83175024 0 1 0 117.83175025 117.83175025c0-21.06831694-5.98585292-40.53412209-15.64805645-57.64329221l96.5749025-83.89620617A163.17340772 163.17340772 0 0 0 488.43364995 700.53080036c24.98033105 0 48.35815029-5.93872021 69.61499805-15.88371991l77.06196465 104.44606341A116.51203462 116.51203462 0 0 0 606.26540019 865.4952507a117.83175024 117.83175024 0 1 0 117.83175023-117.83175022c-18.09895683 0-34.97246346 4.43047379-50.29059101 11.68890961l-75.12952393-101.85376491a163.45620393 163.45620393 0 0 0 54.2497378-117.45468863l101.90089759-12.44303283A117.50182132 117.50182132 0 0 0 983.32700093 488.43364995a117.83175024 117.83175024 0 0 0-117.83175023-117.83175024z" p-id="7683"></path></svg>